<?xml version="1.0" encoding="UTF-8" standalone="no"?>
<!DOCTYPE svg PUBLIC "-//W3C//DTD SVG 1.1//EN" "http://www.w3.org/Graphics/SVG/1.1/DTD/svg11.dtd">
<svg width="100%" height="100%" viewBox="0 0 792 612" version="1.1" xmlns="http://www.w3.org/2000/svg" xmlns:xlink="http://www.w3.org/1999/xlink" xml:space="preserve" xmlns:serif="http://www.serif.com/" style="fill-rule:evenodd;clip-rule:evenodd;stroke-linejoin:round;stroke-miterlimit:2;">
    <g id="Layer-2" serif:id="Layer 2">
        <g transform="matrix(0.733055,0.680169,0.680169,-0.733055,291.693,308.839)">
            <path d="M35.605,-104.97L56.556,-104.97L256.339,80.4L257.77,101.166L35.605,-104.97Z" style="fill:rgb(237,237,237);fill-rule:nonzero;"/>
        </g>
        <g transform="matrix(0.733055,0.680169,0.680169,-0.733055,315.305,360.39)">
            <path d="M27.077,-83.241L48.027,-83.241L200.974,58.671L202.404,79.437L27.077,-83.241Z" style="fill:rgb(237,237,237);fill-rule:nonzero;"/>
        </g>
        <g transform="matrix(0.733055,0.680169,0.680169,-0.733055,244.469,205.738)">
            <path d="M52.661,-148.429L73.612,-148.429L367.07,123.858L368.501,144.625L52.661,-148.429Z" style="fill:rgb(237,237,237);fill-rule:nonzero;"/>
        </g>
        <g transform="matrix(0.733055,0.680169,0.680169,-0.733055,362.53,463.492)">
            <path d="M10.021,-39.783L30.972,-39.783L90.243,15.212L91.674,35.979L10.021,-39.783Z" style="fill:rgb(237,237,237);fill-rule:nonzero;"/>
        </g>
        <g transform="matrix(1,0,0,1,137.042,297.959)">
            <path d="M0,10.583L520.458,10.583L509.253,0L11.179,0L0,10.583Z" style="fill:rgb(237,237,237);fill-rule:nonzero;"/>
        </g>
        <g transform="matrix(0.72893,-0.684588,-0.684588,-0.72893,409.83,535.741)">
            <path d="M-7.202,-3.938L13.614,-3.938L-21.005,28.575L-19.566,7.674L-7.202,-3.938Z" style="fill:rgb(237,237,237);fill-rule:nonzero;"/>
        </g>
        <g transform="matrix(0.733055,0.680169,0.680169,-0.733055,338.918,411.94)">
            <path d="M18.549,-61.512L39.5,-61.512L145.609,36.942L147.039,57.708L18.549,-61.512Z" style="fill:rgb(237,237,237);fill-rule:nonzero;"/>
        </g>
        <g transform="matrix(0.733055,0.680169,0.680169,-0.733055,268.081,257.289)">
            <path d="M44.133,-126.699L65.083,-126.699L311.705,102.129L313.135,122.895L44.133,-126.699Z" style="fill:rgb(237,237,237);fill-rule:nonzero;"/>
        </g>
        <g transform="matrix(-0.7262,0.687483,0.687483,0.7262,422.181,79.2281)">
            <path d="M47.496,-29.499L62.89,-29.499L3.63,26.601L4.491,11.213L47.496,-29.499Z" style="fill:rgb(237,237,237);fill-rule:nonzero;"/>
        </g>
        <g transform="matrix(-0.726231,0.687451,0.687451,0.726231,442.179,86.3281)">
            <path d="M94.959,-48.399L110.353,-48.399L11.155,45.502L12.017,30.113L94.959,-48.399Z" style="fill:rgb(237,237,237);fill-rule:nonzero;"/>
        </g>
        <g transform="matrix(-0.726231,0.687451,0.687451,0.726231,462.175,93.4273)">
            <path d="M142.42,-67.3L157.814,-67.3L18.682,64.403L19.544,49.015L142.42,-67.3Z" style="fill:rgb(237,237,237);fill-rule:nonzero;"/>
        </g>
        <g transform="matrix(1,0,0,1,383.694,62.4585)">
            <path d="M0,12.583L26.613,12.583L13.292,0L0,12.583Z" style="fill:rgb(237,237,237);fill-rule:nonzero;"/>
        </g>
        <g transform="matrix(-0.726231,0.687451,0.687451,0.726231,562.163,128.921)">
            <path d="M379.73,-161.806L395.124,-161.806L56.318,158.909L57.179,143.521L379.73,-161.806Z" style="fill:rgb(237,237,237);fill-rule:nonzero;"/>
        </g>
        <g transform="matrix(-0.7262,0.687483,0.687483,0.7262,522.163,114.718)">
            <path d="M284.801,-124.009L300.195,-124.009L41.27,121.111L42.13,105.724L284.801,-124.009Z" style="fill:rgb(237,237,237);fill-rule:nonzero;"/>
        </g>
        <g transform="matrix(-0.726231,0.687451,0.687451,0.726231,482.173,100.526)">
            <path d="M189.881,-86.201L205.276,-86.201L26.209,83.304L27.071,67.916L189.881,-86.201Z" style="fill:rgb(237,237,237);fill-rule:nonzero;"/>
        </g>
        <g transform="matrix(-0.726231,0.687451,0.687451,0.726231,542.166,121.822)">
            <path d="M332.268,-142.905L347.662,-142.905L48.791,140.007L49.652,124.62L332.268,-142.905Z" style="fill:rgb(237,237,237);fill-rule:nonzero;"/>
        </g>
        <g transform="matrix(-0.7262,0.687483,0.687483,0.7262,502.167,107.62)">
            <path d="M237.34,-105.107L252.734,-105.107L33.742,102.209L34.603,86.821L237.34,-105.107Z" style="fill:rgb(237,237,237);fill-rule:nonzero;"/>
        </g>
        <g transform="matrix(0.733047,0.680178,0.680178,-0.733047,222.327,159.37)">
            <path d="M61.367,-167.358L77.539,-167.358L417.832,148.392L418.935,164.422L61.367,-167.358Z" style="fill:rgb(237,237,237);fill-rule:nonzero;"/>
        </g>
        <g transform="matrix(0,-1,-1,0,397.284,235.244)">
            <path d="M-70.548,-70.549C-109.511,-70.549 -141.097,-38.964 -141.097,0C-141.097,38.962 -109.511,70.548 -70.548,70.548C-31.585,70.548 0,38.962 0,0C0,-38.964 -31.585,-70.549 -70.548,-70.549" style="fill:rgb(237,237,237);fill-rule:nonzero;"/>
        </g>
    </g>
</svg>
